<svg width="230" height="54" viewBox="0 0 230 54" fill="none" xmlns="http://www.w3.org/2000/svg">
<rect width="229.924" height="54" rx="5" fill="#DB2E33"/>
<path d="M56.8203 31.9824H55.6074C53.2402 31.9824 51.5703 31.0273 50.5977 29.1172C49.6367 31.3555 47.709 32.4746 44.8145 32.4746C42.5059 32.4746 40.8125 31.8359 39.7344 30.5586L40.9824 27.2539C41.9551 27.9922 43.3613 28.3613 45.2012 28.3613C47.9785 28.3613 49.3672 27.7402 49.3672 26.498C49.3672 26.2871 49.3262 26.0645 49.2441 25.8301L46.8359 18.9746L49.7012 16.373L52.0742 24.002C52.4609 25.2559 52.8301 26.1348 53.1816 26.6387C53.7559 27.459 54.5469 27.8691 55.5547 27.8691H56.8203V31.9824ZM66.2773 31.9824H64.9414C63.2539 31.9824 62.1406 31.3672 61.6016 30.1367C60.7227 31.3672 59.3223 31.9824 57.4004 31.9824H55.8184V27.8691H57.2598C59.0645 27.8691 59.9668 27.2422 59.9668 25.9883V24.582L62.9023 23.6152V24.4941C62.9023 26.7441 63.6289 27.8691 65.082 27.8691H66.2773V31.9824ZM65.3809 36.3418L63.4473 38.9609L61.0566 37.2559L59.6504 39.2246L56.627 37.168L58.5605 34.5664L61.0918 36.2891L62.4805 34.3203L65.3809 36.3418ZM72.6055 26.2344C72.6055 28.1211 72.0195 29.5684 70.8477 30.5762C69.7578 31.5137 68.252 31.9824 66.3301 31.9824H65.2754V27.8691H68.0879C69.3184 27.8691 69.9336 27.5645 69.9336 26.9551C69.9336 26.5801 69.6641 26.0469 69.125 25.3555L67.9121 23.8086L70.2324 20.4688C71.8145 22.0508 72.6055 23.9727 72.6055 26.2344ZM72.4824 14.7734L70.1621 17.8672L66.998 15.7402L69.3184 12.6465L72.4824 14.7734ZM79.2676 31.5254L76.5957 32.4922L75.5762 11.7676L79.2676 10.3262V31.5254ZM93.875 31.9824H92.0117C91.5781 33.8691 90.4824 35.6562 88.7246 37.3438C87.1426 38.8672 85.3555 40.0156 83.3633 40.7891L80.7793 38.3457C82.4551 37.7246 84.1367 36.8047 85.8242 35.5859C87.6641 34.2617 88.7832 33.084 89.1816 32.0527C87.2715 32.0527 85.8945 31.8477 85.0508 31.4375C83.8203 30.8398 83.2051 29.6973 83.2051 28.0098C83.2051 26.9082 83.5215 25.748 84.1543 24.5293C84.9395 23.0059 85.9414 22.2441 87.1602 22.2441C88.6016 22.2441 89.7734 22.8828 90.6758 24.1602C91.4023 25.1914 91.8594 26.4277 92.0469 27.8691H93.875V31.9824ZM89.252 27.8867C89.1934 27.3477 88.9707 26.8496 88.584 26.3926C88.1621 25.8887 87.6934 25.6367 87.1777 25.6367C86.8379 25.6367 86.5098 25.7891 86.1934 26.0938C85.8887 26.3984 85.7363 26.7207 85.7363 27.0605C85.7363 27.7637 86.3164 28.1152 87.4766 28.1152C88.0273 28.1152 88.6191 28.0391 89.252 27.8867ZM115.127 31.9824H111.137C108.383 31.9824 106.977 30.2715 106.918 26.8496C106.227 27.2363 105.166 27.9805 103.736 29.082C102.506 30.0312 101.463 30.7051 100.607 31.1035C99.3418 31.6895 97.9531 31.9824 96.4414 31.9824H92.873V27.8691H95.8965C97.6895 27.8691 99.2949 27.5 100.713 26.7617C101.381 26.3984 102.582 25.7539 104.316 24.8281C103.859 24.7812 102.939 24.6348 101.557 24.3887C100.303 24.166 99.5762 24.0547 99.377 24.0547C98.873 24.0547 98.3105 24.5352 97.6895 25.4961C96.5762 25.0391 95.6914 24.623 95.0352 24.248C96.1602 21.4473 97.4492 20.0469 98.9023 20.0469C100.238 20.0469 102.219 20.3574 104.844 20.9785C107.48 21.5996 109.473 21.9102 110.82 21.9102C111.512 21.9102 112.162 21.875 112.771 21.8047L112.297 25.7949C111.148 25.7949 110.059 25.9531 109.027 26.2695C109.145 26.7617 109.314 27.1074 109.537 27.3066C109.959 27.6816 110.686 27.8691 111.717 27.8691H115.127V31.9824ZM108.605 14.4746L106.268 17.5684L103.104 15.4414L105.424 12.3301L108.605 14.4746ZM121.438 26.2344C121.438 28.1211 120.852 29.5684 119.68 30.5762C118.59 31.5137 117.084 31.9824 115.162 31.9824H114.107V27.8691H116.92C118.15 27.8691 118.766 27.5645 118.766 26.9551C118.766 26.5801 118.496 26.0469 117.957 25.3555L116.744 23.8086L119.064 20.4688C120.646 22.0508 121.438 23.9727 121.438 26.2344ZM121.824 37.1328L119.504 40.2266L116.322 38.0996L118.66 35.0059L121.824 37.1328ZM147.066 31.9824H145.924C144.998 31.9824 144.324 31.7539 143.902 31.2969C143.727 33.3711 142.672 35.3164 140.738 37.1328C139.133 38.6445 137.199 39.8398 134.938 40.7188L131.949 38.6621C133.707 37.9121 135.512 36.875 137.363 35.5508C139.859 33.7695 141.107 32.2578 141.107 31.0156C141.107 30.3242 140.475 29.1172 139.209 27.3945L142.004 24.3887C142.848 25.7715 143.504 26.6797 143.973 27.1133C144.523 27.6172 145.232 27.8691 146.1 27.8691H147.066V31.9824ZM156.523 31.9824H155.188C153.5 31.9824 152.387 31.3672 151.848 30.1367C150.969 31.3672 149.568 31.9824 147.646 31.9824H146.064V27.8691H147.506C149.311 27.8691 150.213 27.2422 150.213 25.9883V24.582L153.148 23.6152V24.4941C153.148 26.7441 153.875 27.8691 155.328 27.8691H156.523V31.9824ZM155.803 17.1992L153.869 19.8184L151.479 18.1309L150.072 20.082L147.049 18.043L148.982 15.4238L151.514 17.1641L152.902 15.1953L155.803 17.1992ZM177.863 31.9824H176.773C175.262 31.9824 174.119 31.3672 173.346 30.1367C172.584 31.3672 171.506 31.9824 170.111 31.9824C168.775 31.9824 167.791 31.3672 167.158 30.1367C166.209 31.3672 165.066 31.9824 163.73 31.9824C162.312 31.9824 161.311 31.3672 160.725 30.1367C159.951 31.3672 158.826 31.9824 157.35 31.9824H155.521V27.8691H157.438C158.434 27.8691 158.932 27.2715 158.932 26.0762V24.7754L161.498 23.9141V25.0742C161.498 26.9375 162.271 27.8691 163.818 27.8691C165.072 27.8691 165.699 27.2715 165.699 26.0762V24.7754L168.213 23.9141V25.0742C168.213 26.9375 168.875 27.8691 170.199 27.8691C171.688 27.8691 172.432 27.2715 172.432 26.0762V24.7754L174.98 23.9141V25.0742C174.98 26.1992 175.033 26.8848 175.139 27.1309C175.35 27.623 175.941 27.8691 176.914 27.8691H177.863V31.9824ZM162.324 19.0625L164.1 16.6016L166.455 18.1484L167.809 16.3203L170.551 18.1484L168.688 20.5918L166.35 19.0625L165.066 20.8906L162.324 19.0625ZM163.66 15.0723L165.488 12.6816L168.002 14.3867L166.244 16.7773L163.66 15.0723ZM187.32 31.9824H185.984C184.297 31.9824 183.184 31.3672 182.645 30.1367C181.766 31.3672 180.365 31.9824 178.443 31.9824H176.861V27.8691H178.303C180.107 27.8691 181.01 27.2422 181.01 25.9883V24.582L183.945 23.6152V24.4941C183.945 26.7441 184.672 27.8691 186.125 27.8691H187.32V31.9824ZM186.424 36.3418L184.49 38.9609L182.1 37.2559L180.693 39.2246L177.67 37.168L179.604 34.5664L182.135 36.2891L183.523 34.3203L186.424 36.3418ZM193.648 26.2344C193.648 28.1211 193.062 29.5684 191.891 30.5762C190.801 31.5137 189.295 31.9824 187.373 31.9824H186.318V27.8691H189.131C190.361 27.8691 190.977 27.5645 190.977 26.9551C190.977 26.5801 190.707 26.0469 190.168 25.3555L188.955 23.8086L191.275 20.4688C192.857 22.0508 193.648 23.9727 193.648 26.2344ZM194.035 37.1328L191.715 40.2266L188.533 38.0996L190.871 35.0059L194.035 37.1328Z" fill="white"/>
</svg>
