<?xml version="1.0" encoding="UTF-8" standalone="no"?>
<svg
   xmlns:dc="http://purl.org/dc/elements/1.1/"
   xmlns:cc="http://creativecommons.org/ns#"
   xmlns:rdf="http://www.w3.org/1999/02/22-rdf-syntax-ns#"
   xmlns:svg="http://www.w3.org/2000/svg"
   xmlns="http://www.w3.org/2000/svg"
   xmlns:sodipodi="http://sodipodi.sourceforge.net/DTD/sodipodi-0.dtd"
   xmlns:inkscape="http://www.inkscape.org/namespaces/inkscape"
   version="1.1"
   id="Ebene_1"
   x="0px"
   y="0px"
   width="250"
   height="75"
   viewBox="0 0 250.00001 75.000001"
   enable-background="new 0 0 2834.65 1133.86"
   xml:space="preserve"
   sodipodi:docname="40_motrona_DE.svg"
   inkscape:version="1.0.2 (e86c870879, 2021-01-15)"><metadata
   id="metadata49"><rdf:RDF><cc:Work
       rdf:about=""><dc:format>image/svg+xml</dc:format><dc:type
         rdf:resource="http://purl.org/dc/dcmitype/StillImage" /><dc:title></dc:title></cc:Work></rdf:RDF></metadata><defs
   id="defs47" /><sodipodi:namedview
   pagecolor="#ffffff"
   bordercolor="#666666"
   borderopacity="1"
   objecttolerance="10"
   gridtolerance="10"
   guidetolerance="10"
   inkscape:pageopacity="0"
   inkscape:pageshadow="2"
   inkscape:window-width="2560"
   inkscape:window-height="1375"
   id="namedview45"
   showgrid="false"
   fit-margin-top="0"
   fit-margin-left="0"
   fit-margin-right="0"
   fit-margin-bottom="0"
   inkscape:zoom="0.46283713"
   inkscape:cx="1335.2429"
   inkscape:cy="372.96301"
   inkscape:window-x="1920"
   inkscape:window-y="0"
   inkscape:window-maximized="1"
   inkscape:current-layer="Ebene_1" />
<path
   fill="#575756"
   d="m 141.83485,24.45051 c -1.80688,-1.488214 -4.3054,-2.232734 -7.44228,-2.232734 -0.37193,0 -0.69116,0 -1.06291,0 -3.18828,0.212132 -5.7937,1.222524 -7.81337,3.083424 -2.23209,2.018927 -3.34855,4.729847 -3.34855,8.185118 0,1.434766 0.37193,2.817006 1.11646,4.092978 0.79723,1.27505 1.96622,2.285261 3.50798,2.976248 1.59531,0.691169 3.34929,1.062905 5.42167,1.062905 0.37278,0 0.74453,-0.05335 1.1159,-0.05335 3.2436,-0.212313 5.79483,-1.275231 7.81328,-3.242009 2.23339,-2.179286 3.35061,-4.783392 3.35061,-7.75992 -1e-4,-2.551217 -0.90424,-4.571638 -2.65879,-6.112645 z m -5.42092,11.534233 c -0.85078,0.903398 -1.86193,1.487656 -3.08418,1.700626 -0.26512,0 -0.58341,0.05335 -0.95554,0.05335 -1.27608,0 -2.2861,-0.37249 -3.13613,-1.169731 -0.85059,-0.797423 -1.2758,-1.860244 -1.2758,-3.13623 0,-1.115711 0.26493,-2.284604 0.8505,-3.56133 0.53155,-1.275245 1.27533,-2.232175 2.23218,-2.8697 0.69023,-0.478661 1.48812,-0.797242 2.28479,-0.956847 0.37175,-0.05335 0.69098,-0.05335 1.06292,-0.05335 1.27664,0 2.28703,0.319223 3.13688,1.063659 0.79807,0.690317 1.16982,1.647079 1.16982,2.869602 -9e-5,2.338905 -0.74462,4.411378 -2.28544,6.059951 z"
   id="path2"
   style="stroke-width:0.093616" />
<path
   fill="#575756"
   d="m 176.11822,22.749885 c -0.15943,-0.05335 -0.37119,-0.106841 -0.53155,-0.159619 -0.7436,-0.265677 -1.48766,-0.37249 -2.17929,-0.37249 -2.33825,0 -4.57108,1.329253 -6.59075,4.040172 l 0.90414,-3.614876 h -5.42167 l -4.46501,18.549899 h 5.74034 l 1.43533,-5.846688 c 0.58585,-2.338807 1.11646,-4.092978 1.70137,-5.154863 0.58435,-1.063673 1.38139,-1.967155 2.44441,-2.604778 1.00964,-0.638265 2.07256,-0.956846 3.03006,-0.956846 0.58398,0 1.16907,0.05349 1.70044,0.212411 l 1.70063,-3.136216 z"
   id="path4"
   style="stroke-width:0.093616" />
<path
   fill="#575756"
   d="m 117.33032,23.386656 c -0.9561,-0.796473 -2.28526,-1.16888 -3.98532,-1.16888 -1.48962,0 -2.97774,0.31914 -4.36054,0.957503 -1.38111,0.584063 -2.44403,1.380648 -3.18809,2.33815 -0.26605,-1.062919 -0.79751,-1.860146 -1.70128,-2.444963 -0.85106,-0.584915 -2.1263,-0.850606 -3.72114,-0.850606 -2.339367,0 -4.572107,0.903957 -6.750737,2.711492 l 0.583882,-2.286182 h -5.474 l -4.518092,18.549899 h 5.846596 l 2.073592,-8.557343 c 0.318388,-1.435604 0.583882,-2.391696 0.743779,-2.816336 0.37231,-0.903872 0.797604,-1.64849 1.328031,-2.18004 0.478753,-0.584062 1.06432,-1.009456 1.754831,-1.381304 0.690605,-0.319977 1.328691,-0.478842 1.96659,-0.478842 0.691447,0 1.22356,0.158865 1.595496,0.478842 0.372405,0.318302 0.584262,0.690331 0.584262,1.222538 0,0.371931 -0.158965,1.221783 -0.478102,2.49795 l -2.711491,11.214619 h 5.847723 l 2.01901,-8.450614 c 0.58566,-2.392255 1.27627,-4.040186 2.12686,-4.996934 1.11618,-1.275232 2.39207,-1.966401 3.82665,-1.966401 0.74377,0 1.27663,0.158865 1.64857,0.478842 0.31848,0.265035 0.53146,0.690331 0.53146,1.169075 0,0.212229 -0.15952,1.010211 -0.53146,2.444321 l -2.76476,11.321627 h 5.84744 l 2.7642,-11.321627 c 0.37184,-1.594385 0.53136,-2.710096 0.53136,-3.348459 0,-1.275231 -0.47782,-2.339002 -1.43532,-3.136327 z"
   id="path6"
   style="stroke-width:0.093616" />
<path
   fill="#575756"
   d="m 243.40925,23.653185 c -1.32869,-0.956748 -3.40182,-1.435409 -6.16545,-1.435409 -0.9576,0 -1.80763,0.05321 -2.60552,0.159521 -1.48765,0.212886 -2.76336,0.637609 -3.77301,1.222524 -1.64782,0.956106 -2.76494,2.232831 -3.40181,3.880665 l 5.68717,0.424639 c 0.21251,-0.691071 0.58435,-1.221867 1.22272,-1.594371 0.0526,-0.05265 0.15886,-0.05265 0.26493,-0.106282 0.53155,-0.266529 1.27627,-0.425394 2.17947,-0.425394 0.95685,0 1.70138,0.212425 2.23274,0.531648 0.4781,0.372504 0.74471,0.850592 0.74471,1.381402 0,0.425296 -0.10726,0.957503 -0.37211,1.648574 -0.85061,0.265677 -2.44572,0.478563 -4.78481,0.690317 -0.26493,0 -0.53061,0 -0.74377,0.05349 -3.29482,0.212327 -5.58111,0.850592 -6.85644,1.913329 -1.27514,1.063003 -1.91342,2.445159 -1.91342,4.199051 0,1.594468 0.58472,2.869504 1.7538,3.879631 1.16907,1.010197 2.60402,1.541761 4.41147,1.541761 1.11645,0 2.23292,-0.212983 3.34845,-0.690987 1.11646,-0.425394 2.07397,-1.062919 2.92382,-1.860901 0.0535,0.744352 0.21251,1.435507 0.42529,2.126494 h 5.63418 c -0.31848,-1.009372 -0.47884,-1.859964 -0.47884,-2.65701 0,-0.903398 0.26661,-2.445899 0.85078,-4.624444 0.69098,-2.711493 1.11702,-4.358474 1.22253,-4.943473 0.10698,-0.63772 0.15961,-1.222635 0.15961,-1.806795 0,-1.382045 -0.63723,-2.551776 -1.96649,-3.50798 z m -4.94302,9.567176 c -0.26643,1.222719 -0.63827,2.073214 -1.01095,2.65831 -0.37119,0.584831 -0.95685,1.062262 -1.75399,1.434766 -0.31849,0.158865 -0.69042,0.265775 -1.06301,0.371932 -0.47866,0.106142 -0.90321,0.158864 -1.3814,0.158864 -0.7977,0 -1.43475,-0.21167 -1.91341,-0.58416 -0.53249,-0.424556 -0.74378,-0.903398 -0.74378,-1.488397 0,-0.690233 0.31829,-1.275245 0.95609,-1.700541 0.58474,-0.371834 1.59495,-0.691811 3.08259,-0.956846 0.74453,-0.106841 1.59531,-0.26558 2.60552,-0.371834 0.58417,-0.05349 1.06291,-0.106841 1.43476,-0.212983 z"
   id="path8"
   style="stroke-width:0.093616" />
<path
   fill="#575756"
   d="m 220.92439,23.547029 c -1.00946,-0.903957 -2.39086,-1.329253 -4.1983,-1.329253 -1.32945,0 -2.55066,0.212132 -3.77319,0.637609 -1.16982,0.478661 -2.49927,1.169732 -3.8287,2.179286 l 0.53229,-2.391599 h -5.47437 l -4.51773,18.549899 h 5.79436 l 1.85875,-7.600483 c 0.53231,-2.23237 1.01097,-3.721046 1.43475,-4.464741 0.63922,-0.956944 1.43645,-1.80762 2.49853,-2.391697 1.00945,-0.637706 1.96724,-0.956944 2.81783,-0.956944 0.79724,0 1.3814,0.212425 1.80669,0.531648 0.47791,0.372504 0.69042,0.9033 0.69042,1.541663 0,0.318386 -0.21251,1.221881 -0.58416,2.817007 l -2.55046,10.523645 h 5.79285 l 2.55197,-10.523645 c 0.4779,-1.807452 0.69023,-3.030074 0.69023,-3.667696 0,-1.435591 -0.53137,-2.604764 -1.54176,-3.454699 z"
   id="path10"
   style="stroke-width:0.093616" />
<path
   fill="#469cbb"
   d="M 4.269347,5.8995781 C 1.6114975,5.8461298 2.3556503,0.1061564 5.7575594,0 H 46.314036 l 20.145397,35.24021 h 13.502599 c 2.710836,0.106143 1.381396,5.846689 -1.32944,5.900151 H 62.314214 L 42.168068,5.8995781 c -12.756948,0 -25.141773,0 -37.898721,0 z"
   id="path12"
   style="stroke-width:0.093616" />
<path
   fill="#575756"
   d="M 1.3988957,17.699405 C -1.0992451,17.539884 -0.03633,12.384727 2.8872016,12.225123 H 40.520615 l 3.136227,5.474282 z"
   id="path14"
   style="stroke-width:0.093616" />
<path
   fill="#575756"
   d="m 145.66271,41.086899 5.42186,-23.387494 c -2.76513,0 -5.52867,0 -8.23951,0 -2.76364,-0.159521 -1.48831,-5.527647 1.22318,-5.474282 7.49425,0 15.04109,0 22.48318,0 2.71008,0.159604 1.43419,5.314663 -1.27589,5.474282 h -8.71742 l -5.10188,23.441054 z"
   id="path16"
   style="stroke-width:0.093616" />
<path
   fill="#575756"
   d="m 171.54733,12.225123 h 60.99649 c 2.23291,0.05265 1.54596,5.348084 -0.73892,5.45424 -20.72994,-0.05335 -40.48449,-0.03282 -61.26722,-0.08617 2.33815,-0.106282 3.18893,-5.261955 1.00965,-5.368125 z"
   id="path18"
   style="stroke-width:0.093616" />
<path
   fill="#575756"
   d="m 58.539994,12.225123 h 80.264786 c -3.13557,0.159604 -3.56086,5.314663 -1.27533,5.474282 H 61.676221 Z"
   id="path20"
   style="stroke-width:0.093616" />
<path
   fill="#575756"
   d="m 243.72772,17.641641 c 3.45519,0 6.27228,-2.816811 6.27228,-6.271426 0,-3.4553692 -2.81709,-6.2721659 -6.27228,-6.2721659 -3.50806,0 -6.32581,2.8167967 -6.32581,6.2721659 0,3.454615 2.81775,6.271426 6.32581,6.271426 z"
   id="path22"
   style="stroke-width:0.093616" />
<path
   fill="#ffffff"
   d="m 247.64237,9.2849212 c 0,-0.4781018 -0.0532,-0.9033978 -0.26624,-1.221881 -0.21233,-0.3190418 -0.47884,-0.5847191 -0.79742,-0.6907917 -0.37193,-0.1061424 -0.79723,-0.213067 -1.43475,-0.213067 h -0.90416 -2.60458 l -1.91313,7.9728895 h 1.64801 l 0.79667,-3.295835 h 0.63904 c 0.42454,0 0.69041,0.05349 0.84983,0.160359 0.21233,0.159619 0.37193,0.42464 0.58416,0.796487 0,0.05349 0.0535,0.160359 0.0535,0.212983 0.42512,0.956847 0.69099,1.647918 0.79631,2.126006 h 1.75473 c -0.4253,-1.169159 -0.79723,-2.019095 -1.16982,-2.657556 -0.15868,-0.318399 -0.31764,-0.531466 -0.53061,-0.743779 0.79647,-0.106841 1.43475,-0.371847 1.86005,-0.797143 0.42539,-0.426148 0.63836,-1.0103926 0.63836,-1.6486718 z m -1.91342,0.6917275 c -0.16035,0.2651183 -0.37193,0.4252963 -0.69097,0.5307963 -0.1598,0.05349 -0.42623,0.10684 -0.79808,0.10684 -0.26512,0 -0.58416,0 -0.95666,0 h -0.85004 l 0.53081,-2.1265773 h 1.27589 0.47866 c 0.47809,0 0.79742,0.05349 0.95609,0.1602611 0.21392,0.1588645 0.31924,0.3719455 0.31924,0.6369664 0,0.2664315 -0.0533,0.4786605 -0.26494,0.6917274 z"
   id="path24"
   style="stroke-width:0.093616" />
<g
   id="g28"
   transform="matrix(0.09361592,0,0,0.09361592,-4.6974667,-21.320845)">
	<path
   fill="#469cbb"
   d="m 1774.555,961.308 10.723,-56.46 h -88.309 l 3.471,-17.664 109.441,-130.881 h 28.387 l -24.285,127.73 h 28.068 l -4.094,20.814 h -27.756 l -10.73,56.46 h -24.916 z m 14.824,-77.275 13.25,-68.447 c 2.52,-10.722 5.357,-22.076 7.885,-32.793 h -1.264 c -8.516,12.61 -14.193,22.39 -23.021,33.744 l -57.092,66.864 v 0.632 z"
   id="path26" />
</g>
<g
   id="g40"
   transform="matrix(0.09361592,0,0,0.09361592,-4.6974667,-21.320845)">
	<path
   fill="#469cbb"
   d="m 2096.385,941.277 c 5.73,2.337 12.754,3.638 22.123,3.638 18.479,0 29.926,-9.626 35.914,-40.593 l 22.381,-118.401 h 21.598 l -22.898,120.745 c -7.809,41.118 -24.984,57.51 -57.777,57.51 -10.67,0 -21.598,-2.344 -26.02,-4.42 z"
   id="path30" />
	<path
   fill="#469cbb"
   d="m 2285.318,961.314 c 0,-7.549 1.301,-19.521 2.861,-32.532 h -0.518 c -13.797,26.027 -30.975,35.394 -48.926,35.394 -22.123,0 -36.172,-17.693 -36.172,-41.635 0,-43.721 32.268,-90.045 87.176,-90.045 11.971,0 25.244,2.086 33.834,4.946 l -12.754,65.578 c -4.162,21.856 -5.98,44.238 -5.465,58.294 z m 14.049,-109.822 c -3.119,-0.776 -7.801,-1.819 -15.092,-1.819 -32.525,0 -59.07,34.087 -59.33,68.965 0,14.048 4.939,27.845 21.6,27.845 17.953,0 39.291,-23.424 45.539,-56.993 z"
   id="path32" />
	<path
   fill="#469cbb"
   d="m 2337.623,961.314 35.129,-184.761 h 21.598 l -15.607,81.186 h 0.518 c 10.67,-15.357 26.02,-25.243 45.021,-25.243 14.309,0 31.227,8.852 31.227,33.828 0,6.767 -0.777,14.833 -2.078,21.339 l -14.057,73.651 h -21.598 l 14.049,-72.608 c 0.785,-4.681 1.568,-10.41 1.568,-17.436 0,-11.712 -5.475,-20.822 -19.521,-20.822 -16.658,0 -37.732,19.521 -42.938,47.885 l -11.711,62.981 z"
   id="path34" />
	<path
   fill="#469cbb"
   d="m 2476.588,961.314 15.35,-81.192 c 3.127,-16.4 5.205,-33.052 6.506,-44.765 h 18.996 c -1.035,8.852 -2.078,17.693 -3.379,27.328 h 0.775 c 8.068,-17.177 21.607,-30.189 38.516,-30.189 1.828,0 4.43,0.259 5.99,0.518 l -4.162,21.34 c -1.303,-0.259 -3.387,-0.518 -5.73,-0.518 -18.738,0 -35.389,22.64 -40.854,52.046 l -10.41,55.433 h -21.598 z"
   id="path36" />
	<path
   fill="#469cbb"
   d="m 2648.602,954.024 c -9.367,5.464 -24.725,9.893 -41.635,9.893 -33.311,0 -47.885,-22.64 -47.885,-50.486 0,-37.996 28.105,-80.935 68.699,-80.935 23.941,0 36.955,14.315 36.955,32.268 0,33.052 -37.215,41.902 -83.797,41.118 -1.043,5.465 -0.258,17.177 2.604,23.941 4.945,11.188 15.09,16.919 28.104,16.919 14.834,0 26.027,-4.688 33.836,-8.852 z m -23.942,-104.61 c -20.563,0 -35.912,20.037 -41.117,39.817 33.826,0.258 60.371,-4.171 60.371,-23.683 0,-10.411 -7.799,-16.134 -19.254,-16.134 z"
   id="path38" />
</g>
<path
   fill="#469cbb"
   d="m 194.48632,28.892585 c -1.27242,-3.915664 -3.43459,-6.089335 -6.59355,-6.534673 -0.36755,-0.05195 -0.68406,-0.09553 -0.99964,-0.140136 -3.23162,0.07681 -6.21394,2.192107 -8.85915,6.488138 -1.79331,2.814562 -3.25588,6.343505 -4.41072,10.717523 -0.7025,2.701479 -1.28394,5.688955 -1.74556,8.958296 -0.33337,2.355287 -0.50665,4.732095 -0.48652,6.868603 0.045,1.207649 0.10698,2.283389 0.17019,3.359226 0.34703,3.250905 1.15504,5.899103 2.4415,7.815519 1.3388,1.922784 2.99805,3.091859 4.99787,3.37336 0.37063,0.05209 0.75586,-0.02695 1.17695,0.03212 3.23172,-0.07765 6.18052,-2.329826 8.80991,-6.894998 2.96538,-5.051235 4.97643,-11.304309 6.01042,-18.62966 0.88485,-6.279288 0.69032,-11.37527 -0.5117,-15.413306 z m -5.40867,16.662142 c -1.02668,5.540747 -2.45376,10.201601 -4.25971,13.888291 -1.60812,3.335721 -3.204,4.88244 -4.78414,4.750642 -0.2009,-0.06983 -0.39403,-0.03198 -0.57144,-0.09413 -0.9546,-0.334125 -1.67927,-1.325789 -2.19426,-2.875329 -0.48951,-1.541202 -0.69313,-3.613577 -0.62976,-6.119949 0.0455,-0.826445 0.0925,-1.652135 0.15672,-2.577627 0.1424,-1.635096 0.39675,-3.441878 0.72805,-5.223674 0.45872,-2.472854 0.9546,-4.722166 1.48961,-6.746986 0.87494,-3.274592 1.84032,-5.886478 2.91455,-7.932639 1.59532,-3.128087 3.1998,-4.568747 4.77919,-4.436279 0.151,0.05265 0.30154,0.104886 0.47744,0.166085 1.50685,0.527989 2.40527,2.317551 2.74575,5.386659 0.29639,3.158883 0.0271,7.066321 -0.852,11.814882 z"
   id="path42"
   style="stroke-width:0.093616" />
</svg>
